{"glyphs":{":":{"x_min":0,"x_max":550,"ha":550,"o":"m 240 141 q 256 141 269 135 q 283 129 292 119 q 302 109 308 96 q 313 83 313 68 q 313 53 307 39 q 301 25 290 15 q 279 4 265 -2 q 251 -9 235 -9 q 219 -9 206 -3 q 192 3 183 13 q 173 22 168 36 q 163 49 163 63 q 163 80 169 94 q 176 108 187 118 q 197 129 211 135 q 225 141 240 141 z m 312 499 q 328 499 341 493 q 354 487 364 477 q 374 467 379 454 q 385 440 385 426 q 385 411 379 397 q 373 384 362 373 q 352 362 337 356 q 323 349 307 349 q 291 349 278 355 q 264 361 255 371 q 245 380 240 394 q 235 407 235 421 q 235 438 241 452 q 248 466 258 476 q 269 487 283 493 q 297 499 312 499 z"},"$":{"x_min":0,"x_max":550,"ha":550,"o":"m 383 730 l 458 730 l 426 636 q 451 634 475 629 q 499 625 519 619 l 504 544 q 479 551 453 556 q 428 562 402 564 l 331 352 q 364 337 390 321 q 417 305 436 287 q 455 268 465 246 q 475 225 475 198 q 475 181 471 160 q 467 139 457 118 q 446 97 428 76 q 410 56 381 40 q 352 23 311 13 q 270 2 214 0 l 175 -115 l 100 -115 l 139 0 q 100 3 66 9 q 33 15 8 22 l 24 101 q 53 91 86 84 q 120 78 164 75 l 238 298 q 208 310 183 325 q 158 340 140 359 q 122 377 112 399 q 102 421 102 448 q 102 488 119 522 q 137 556 169 581 q 201 605 248 620 q 294 635 352 638 z m 327 565 q 266 561 230 534 q 194 508 194 462 q 194 451 197 440 q 200 429 208 418 q 216 408 230 398 q 244 388 265 379 z m 239 75 q 280 77 308 88 q 336 99 353 115 q 370 130 377 150 q 384 169 384 188 q 384 199 380 209 q 376 220 367 231 q 358 241 343 251 q 328 261 304 271 z"},"?":{"x_min":0,"x_max":550,"ha":550,"o":"m 263 187 l 189 187 l 220 374 l 270 374 q 312 374 339 386 q 365 398 380 416 q 394 434 399 454 q 404 475 404 492 q 404 523 391 546 q 379 569 357 584 q 334 599 303 606 q 272 614 236 614 l 220 614 l 235 690 l 247 690 q 311 690 358 674 q 405 658 436 632 q 467 605 483 571 q 498 536 498 499 q 498 458 485 424 q 471 390 445 364 q 418 338 379 323 q 340 309 289 307 z m 202 120 q 215 120 227 115 q 238 110 247 101 q 255 93 260 81 q 264 70 264 57 q 264 43 259 31 q 253 19 244 10 q 235 1 223 -4 q 211 -9 198 -9 q 184 -9 173 -4 q 161 1 153 10 q 144 18 139 29 q 135 41 135 53 q 135 67 140 80 q 146 92 155 101 q 164 110 176 115 q 188 120 202 120 z"},"<":{"x_min":0,"x_max":550,"ha":550,"o":"m 407 42 l 347 -8 l 70 269 l 449 540 l 495 482 l 185 264 z"},"'":{"x_min":0,"x_max":550,"ha":550,"o":"m 419 690 l 359 461 l 275 461 l 307 690 z"},"=":{"x_min":0,"x_max":550,"ha":550,"o":"m 498 315 l 78 315 l 92 387 l 512 387 z m 464 146 l 44 146 l 58 217 l 478 217 z"},"a":{"x_min":0,"x_max":550,"ha":550,"o":"m 326 496 q 358 496 387 492 q 416 488 442 480 l 519 499 l 464 225 q 462 216 460 201 q 458 186 455 160 q 452 134 447 95 q 443 57 437 0 l 357 0 l 369 113 q 335 54 287 23 q 239 -9 183 -9 q 148 -9 122 3 q 96 15 79 36 q 62 58 53 88 q 45 119 45 156 q 45 226 63 288 q 82 350 117 396 q 153 442 205 469 q 258 496 326 496 z m 131 164 q 131 118 147 91 q 163 65 199 65 q 220 65 241 75 q 262 84 282 102 q 302 119 320 142 q 338 165 353 192 q 368 218 378 247 q 389 276 395 305 l 415 406 q 392 416 368 421 q 344 427 323 427 q 283 427 253 413 q 224 399 202 377 q 181 355 167 327 q 153 299 145 270 q 137 241 134 213 q 131 185 131 164 z"},"L":{"x_min":0,"x_max":550,"ha":550,"o":"m 431 0 l 64 0 l 192 638 l 280 638 l 167 74 l 446 74 z"},"3":{"x_min":0,"x_max":550,"ha":550,"o":"m 160 -9 q 122 -9 89 -6 q 56 -3 30 1 l 45 75 q 74 70 105 68 q 136 65 171 65 q 213 65 246 72 q 278 79 301 90 q 325 101 340 116 q 355 131 365 147 q 374 163 377 179 q 381 195 381 209 q 381 230 371 246 q 361 262 343 273 q 324 284 298 289 q 272 294 240 294 l 167 294 l 181 364 l 248 364 q 279 364 308 373 q 337 382 360 400 q 382 418 395 444 q 408 469 408 502 q 408 539 382 556 q 356 573 305 573 q 273 573 240 567 q 206 561 165 548 l 165 622 q 183 628 203 633 q 223 637 243 640 q 263 644 282 645 q 302 647 319 647 q 364 647 398 638 q 432 628 454 612 q 477 595 488 571 q 499 547 499 518 q 499 497 493 472 q 487 447 472 422 q 457 397 430 374 q 403 351 361 333 q 384 329 404 319 q 424 309 439 294 q 454 279 463 259 q 471 239 471 214 q 471 190 464 165 q 457 139 441 115 q 426 90 401 67 q 376 45 342 28 q 308 11 262 1 q 217 -9 160 -9 z"},";":{"x_min":0,"x_max":550,"ha":550,"o":"m 45 -100 q 70 -101 97 -95 q 125 -89 147 -77 q 170 -64 185 -45 q 199 -25 199 1 q 199 14 195 23 q 191 32 186 40 q 181 48 177 58 q 173 68 173 82 q 173 100 179 114 q 186 128 196 138 q 207 147 219 152 q 232 157 245 157 q 277 157 298 136 q 319 114 319 72 q 319 47 312 21 q 305 -6 290 -33 q 275 -60 253 -84 q 231 -108 200 -126 q 170 -145 131 -156 q 92 -167 45 -167 z m 312 499 q 328 499 341 493 q 354 487 364 477 q 374 467 379 454 q 385 440 385 426 q 385 411 379 397 q 373 384 362 373 q 352 362 337 356 q 323 349 307 349 q 291 349 278 355 q 264 361 255 371 q 245 380 240 394 q 235 407 235 421 q 235 438 241 452 q 248 466 258 476 q 269 487 283 493 q 297 499 312 499 z"},"J":{"x_min":0,"x_max":550,"ha":550,"o":"m 506 638 l 415 185 q 408 147 390 113 q 373 79 343 52 q 314 26 273 10 q 231 -7 180 -7 q 133 -7 93 8 q 52 23 17 54 l 68 116 q 92 95 122 82 q 152 68 190 68 q 216 68 239 76 q 262 84 280 101 q 298 118 311 143 q 323 168 330 200 l 402 563 l 160 563 l 175 638 z"},"V":{"x_min":0,"x_max":550,"ha":550,"o":"m 626 638 l 281 0 l 164 0 l 80 638 l 174 638 l 226 208 l 239 82 l 305 208 l 529 638 z"},"\"":{"x_min":0,"x_max":550,"ha":550,"o":"m 322 690 l 262 461 l 182 461 l 214 690 z m 512 690 l 452 461 l 372 461 l 404 690 z"},"7":{"x_min":0,"x_max":550,"ha":550,"o":"m 551 559 l 176 0 l 74 0 l 458 559 l 119 559 l 135 638 l 567 638 z"},"S":{"x_min":0,"x_max":550,"ha":550,"o":"m 188 -9 q 163 -9 137 -7 q 111 -5 87 -2 q 63 1 43 5 q 22 9 7 13 l 23 97 q 58 83 102 76 q 146 68 204 68 q 251 68 285 77 q 318 85 339 101 q 360 116 369 136 q 379 157 379 180 q 379 203 367 219 q 355 235 336 249 q 317 263 293 274 q 269 286 243 298 q 217 310 193 324 q 168 338 149 357 q 130 375 119 399 q 107 424 107 456 q 107 493 124 528 q 142 562 176 589 q 209 615 259 631 q 309 647 373 647 q 389 647 409 646 q 428 644 448 641 q 468 639 487 635 q 506 632 522 628 l 506 550 q 471 561 434 566 q 397 572 362 572 q 319 572 289 564 q 258 556 238 542 q 218 527 208 508 q 198 489 198 467 q 198 445 210 428 q 222 412 241 399 q 260 386 285 374 q 309 363 335 351 q 360 338 385 324 q 409 310 428 291 q 448 272 459 248 q 471 223 471 190 q 471 148 453 112 q 435 75 399 49 q 363 22 310 7 q 257 -9 188 -9 z"},"}":{"x_min":0,"x_max":550,"ha":550,"o":"m 203 707 l 239 707 q 333 707 370 660 q 407 614 389 524 l 366 411 q 361 387 363 369 q 365 351 376 339 q 387 327 408 321 q 429 315 463 315 l 484 315 l 470 247 l 449 247 q 414 247 390 240 q 366 234 350 221 q 335 208 326 189 q 318 169 313 144 l 279 -27 q 271 -68 254 -100 q 238 -132 211 -155 q 185 -177 147 -188 q 109 -200 58 -200 l 22 -200 l 36 -132 l 65 -132 q 177 -132 200 -22 l 234 152 q 246 212 278 245 q 310 277 363 285 q 312 291 294 324 q 275 358 287 420 l 309 532 q 320 588 298 613 q 275 639 219 639 l 190 639 z"},"Z":{"x_min":0,"x_max":550,"ha":550,"o":"m 553 570 l 132 81 l 461 81 l 445 0 l 4 0 l 17 65 l 441 559 l 125 559 l 141 638 l 567 638 z"},"x":{"x_min":0,"x_max":550,"ha":550,"o":"m 470 0 l 361 0 l 266 187 l 98 0 l -16 0 l 223 246 l 91 490 l 196 490 l 287 302 l 451 490 l 560 490 l 327 244 z"},")":{"x_min":0,"x_max":550,"ha":550,"o":"m 269 725 q 341 645 378 554 q 416 463 416 364 q 416 292 398 221 q 380 149 340 77 q 301 6 238 -65 q 176 -136 86 -205 l 45 -153 q 128 -84 183 -16 q 237 52 270 117 q 302 183 315 244 q 329 305 329 360 q 329 445 300 522 q 272 600 210 677 z"},"&":{"x_min":0,"x_max":550,"ha":550,"o":"m 516 333 q 503 268 480 214 q 458 160 426 118 l 497 0 l 391 0 l 359 53 q 321 23 277 8 q 234 -7 188 -7 q 146 -7 112 4 q 79 14 56 34 q 33 54 21 83 q 9 112 9 149 q 9 189 22 222 q 36 254 58 280 q 81 306 111 326 q 141 347 174 364 l 166 377 q 150 403 142 432 q 133 460 133 492 q 133 530 146 564 q 160 597 185 622 q 210 647 246 661 q 281 676 326 676 q 364 676 391 665 q 419 655 437 637 q 455 619 463 595 q 472 571 472 544 q 472 507 458 478 q 443 449 418 426 q 393 403 359 383 q 326 364 288 345 l 382 189 q 398 218 410 254 q 422 291 430 333 z m 98 163 q 98 114 124 90 q 150 66 199 66 q 231 66 263 79 q 294 91 322 116 l 209 305 q 185 292 164 278 q 144 264 129 247 q 115 229 106 209 q 98 188 98 163 z m 384 538 q 384 567 367 586 q 350 604 316 604 q 293 604 275 595 q 258 586 246 572 q 233 558 227 539 q 221 521 221 501 q 221 489 223 479 q 224 468 228 457 q 231 446 238 433 q 244 420 253 405 l 254 403 q 281 416 304 430 q 328 443 346 459 q 363 475 374 494 q 384 514 384 538 z"},"_":{"x_min":0,"x_max":550,"ha":550,"o":"m 460 -200 l -90 -200 l -76 -130 l 474 -130 z"},"v":{"x_min":0,"x_max":550,"ha":550,"o":"m 80 490 l 172 490 l 226 166 l 238 83 q 281 122 313 169 q 346 217 369 269 q 392 322 406 378 q 419 434 425 490 l 521 490 q 513 422 491 354 q 468 286 434 223 q 399 159 354 103 q 308 46 254 0 l 172 0 z"},"O":{"x_min":0,"x_max":550,"ha":550,"o":"m 225 -9 q 127 -9 79 47 q 30 103 30 206 q 30 255 39 307 q 47 359 65 408 q 83 457 110 500 q 137 544 173 576 q 208 609 254 628 q 299 647 354 647 q 451 647 500 591 q 549 535 549 432 q 549 383 540 331 q 531 279 513 230 q 496 181 469 137 q 442 94 406 61 q 370 29 325 10 q 280 -9 225 -9 z m 460 426 q 460 459 453 486 q 447 513 433 531 q 418 550 397 561 q 375 571 344 571 q 305 571 272 553 q 240 535 215 506 q 190 476 172 438 q 154 400 142 361 q 130 321 125 282 q 119 243 119 212 q 119 179 126 152 q 132 125 146 106 q 160 87 182 77 q 204 67 235 67 q 274 67 307 85 q 339 103 364 132 q 389 162 407 199 q 425 237 437 277 q 449 317 454 356 q 460 395 460 426 z"},"(":{"x_min":0,"x_max":550,"ha":550,"o":"m 284 -205 q 211 -125 174 -34 q 137 57 137 156 q 137 227 155 299 q 173 371 212 443 q 251 514 314 585 q 376 656 466 725 l 507 673 q 424 604 370 536 q 315 468 283 403 q 250 337 237 276 q 224 215 224 160 q 224 75 252 -2 q 281 -80 342 -157 z"},"C":{"x_min":0,"x_max":550,"ha":550,"o":"m 441 24 q 399 8 360 0 q 321 -8 278 -8 q 167 -8 107 48 q 47 104 47 216 q 47 263 56 313 q 65 363 85 411 q 104 458 133 501 q 163 544 202 576 q 242 608 292 627 q 342 646 404 646 q 448 646 488 638 q 527 631 559 615 l 542 530 q 511 549 477 559 q 443 569 399 569 q 353 569 316 553 q 279 538 250 511 q 222 485 201 451 q 180 417 167 379 q 154 341 147 302 q 141 263 141 228 q 141 70 294 70 q 335 70 377 79 q 419 89 457 106 z"},"W":{"x_min":0,"x_max":550,"ha":550,"o":"m 606 638 l 435 0 l 324 0 l 290 227 l 283 300 l 244 221 l 127 0 l 16 0 l 100 638 l 181 638 l 119 204 l 102 85 l 153 186 l 278 423 l 338 423 l 376 169 l 389 85 l 409 173 l 527 638 z"},"A":{"x_min":0,"x_max":550,"ha":550,"o":"m 495 0 l 403 0 l 387 139 l 121 139 l 48 0 l -45 0 l 295 638 l 414 638 z m 377 217 l 338 558 l 161 217 z"},"f":{"x_min":0,"x_max":550,"ha":550,"o":"m 231 -9 q 221 -60 202 -96 q 184 -133 155 -157 q 126 -182 87 -193 q 48 -205 -4 -205 q -14 -205 -27 -205 q -41 -204 -51 -203 l -37 -130 q -15 -133 5 -133 q 63 -133 98 -103 q 132 -73 145 -9 l 217 348 l 59 348 l 73 419 l 231 419 l 247 500 q 267 597 323 646 q 380 696 482 696 q 508 696 539 693 q 570 690 600 684 l 585 612 q 557 618 529 622 q 501 625 473 625 q 415 625 380 594 q 346 562 333 500 l 317 419 l 532 419 l 518 348 l 303 348 z m 0 490 z"},"Q":{"x_min":0,"x_max":550,"ha":550,"o":"m 258 -7 q 257 -28 261 -45 q 266 -62 276 -75 q 287 -87 304 -94 q 321 -101 345 -101 q 369 -101 393 -93 q 417 -85 444 -67 l 479 -127 q 441 -153 405 -165 q 369 -176 333 -176 q 294 -176 263 -165 q 231 -154 210 -133 q 189 -111 180 -79 q 171 -47 177 -5 q 104 8 67 62 q 30 117 30 206 q 30 255 39 307 q 47 359 65 408 q 83 457 110 500 q 137 544 173 576 q 208 609 254 628 q 299 647 354 647 q 451 647 500 591 q 549 535 549 432 q 549 385 541 336 q 533 287 517 240 q 501 194 477 152 q 453 109 421 76 q 389 43 348 21 q 307 -1 258 -7 z m 460 426 q 460 459 453 486 q 447 513 433 532 q 418 551 397 561 q 375 571 344 571 q 305 571 272 553 q 240 535 215 506 q 190 476 172 438 q 154 400 142 361 q 130 321 125 282 q 119 243 119 212 q 119 179 126 152 q 132 125 146 106 q 160 87 182 77 q 204 67 235 67 q 274 67 307 85 q 339 103 364 132 q 389 162 407 199 q 425 237 437 277 q 449 317 454 356 q 460 395 460 426 z"},"w":{"x_min":0,"x_max":550,"ha":550,"o":"m 562 490 q 558 425 544 356 q 531 287 508 222 q 485 156 454 99 q 423 42 384 0 l 312 0 l 280 205 l 276 255 l 249 202 l 139 0 l 35 0 l 68 490 l 150 490 l 121 157 l 114 83 l 148 148 l 265 368 l 326 368 l 361 151 l 370 86 q 395 124 414 170 q 433 217 446 270 q 459 322 467 378 q 475 434 478 490 z"},"-":{"x_min":0,"x_max":550,"ha":550,"o":"m 416 226 l 124 226 l 140 306 l 432 306 z"},"E":{"x_min":0,"x_max":550,"ha":550,"o":"m 411 0 l 48 0 l 176 638 l 539 638 l 524 565 l 248 565 l 208 367 l 473 367 l 459 294 l 194 294 l 150 74 l 426 74 z"},"s":{"x_min":0,"x_max":550,"ha":550,"o":"m 474 408 q 430 418 395 423 q 359 428 332 428 q 298 428 274 423 q 250 417 234 408 q 219 398 211 384 q 204 370 204 353 q 204 341 210 331 q 215 322 228 313 q 240 305 260 296 q 280 288 310 279 q 346 267 371 255 q 396 242 412 227 q 428 211 436 192 q 443 173 443 148 q 443 110 426 81 q 410 51 380 31 q 350 12 308 1 q 267 -9 217 -9 q 170 -9 128 -5 q 85 -1 49 8 l 49 91 q 93 77 136 70 q 180 63 222 63 q 292 63 323 83 q 355 102 355 143 q 355 154 350 163 q 345 172 333 180 q 322 188 301 196 q 281 205 249 214 q 220 223 196 234 q 171 245 154 260 q 136 275 127 296 q 117 317 117 344 q 117 377 130 405 q 144 433 171 454 q 199 475 241 487 q 283 499 340 499 q 354 499 370 498 q 386 497 404 495 q 421 493 439 490 q 457 487 474 483 z"},">":{"x_min":0,"x_max":550,"ha":550,"o":"m 149 490 l 209 540 l 486 263 l 107 -8 l 61 50 l 371 268 z"},"l":{"x_min":0,"x_max":550,"ha":550,"o":"m 444 33 q 397 14 350 4 q 304 -7 255 -7 q 209 -7 180 4 q 150 16 136 41 q 121 67 121 108 q 120 150 132 210 l 229 690 l 316 690 l 220 210 q 211 167 209 139 q 207 111 212 95 q 218 79 231 72 q 244 66 265 66 q 301 66 345 76 q 390 86 444 109 z"},"8":{"x_min":0,"x_max":550,"ha":550,"o":"m 294 371 q 338 393 367 410 q 395 427 411 443 q 428 459 434 475 q 440 490 440 509 q 440 541 415 558 q 390 576 342 576 q 312 576 287 569 q 262 562 244 549 q 226 536 216 516 q 206 496 206 470 q 206 456 211 443 q 216 431 226 419 q 237 407 254 396 q 271 384 294 371 z m 372 333 q 422 305 449 270 q 476 234 476 186 q 476 148 460 113 q 444 78 412 51 q 380 24 332 8 q 285 -9 221 -9 q 174 -9 140 2 q 105 12 82 31 q 60 49 48 74 q 37 100 37 130 q 37 157 45 182 q 53 207 72 231 q 91 255 124 279 q 157 302 207 328 q 161 354 139 386 q 116 418 116 461 q 116 496 131 530 q 146 563 175 589 q 205 615 249 631 q 293 647 353 647 q 397 647 431 638 q 464 628 486 612 q 508 595 519 571 q 530 547 530 519 q 530 493 522 469 q 515 446 497 423 q 479 400 449 378 q 418 356 372 333 z m 285 290 q 238 269 208 251 q 177 233 160 216 q 142 198 135 180 q 129 162 129 139 q 129 101 157 83 q 185 64 236 64 q 264 64 291 71 q 317 79 338 93 q 359 107 371 128 q 384 148 384 175 q 384 190 379 205 q 374 220 362 234 q 351 248 332 262 q 313 276 285 290 z"},"\\":{"x_min":0,"x_max":550,"ha":550,"o":"m 422 -105 l 343 -105 l 168 690 l 247 690 z"},"e":{"x_min":0,"x_max":550,"ha":550,"o":"m 141 218 q 139 205 137 194 q 136 183 136 172 q 136 119 168 90 q 200 62 266 62 q 309 62 351 68 q 394 75 427 83 l 427 13 q 390 3 344 -3 q 299 -9 252 -9 q 148 -9 99 37 q 50 83 50 171 q 50 238 71 298 q 92 357 129 402 q 166 447 217 473 q 268 499 328 499 q 370 499 402 489 q 435 479 457 462 q 479 445 491 422 q 503 399 503 372 q 503 337 488 309 q 473 280 441 260 q 408 240 357 229 q 306 218 233 218 z m 232 283 q 286 283 322 290 q 357 296 378 308 q 398 319 407 333 q 415 348 415 364 q 415 377 410 390 q 404 402 393 411 q 381 420 364 426 q 347 431 323 431 q 292 431 265 421 q 239 410 218 391 q 197 372 181 344 q 165 317 154 283 z"},"b":{"x_min":0,"x_max":550,"ha":550,"o":"m 219 -6 q 166 -6 121 5 q 76 16 35 34 l 166 690 l 251 690 l 213 500 l 181 382 q 196 409 216 431 q 235 453 259 468 q 282 483 308 491 q 334 499 362 499 q 397 499 423 487 q 449 475 466 454 q 483 432 492 402 q 500 371 500 334 q 500 264 482 202 q 463 140 428 94 q 392 48 340 21 q 287 -6 219 -6 z m 414 326 q 414 373 398 399 q 382 425 346 425 q 325 425 304 415 q 283 405 263 388 q 243 371 225 348 q 208 325 193 299 q 178 273 167 245 q 156 217 151 190 l 130 84 q 153 74 177 69 q 202 63 222 63 q 262 63 292 77 q 322 90 343 112 q 364 134 378 163 q 392 191 400 220 q 408 250 411 277 q 414 305 414 326 z"},"%":{"x_min":0,"x_max":550,"ha":550,"o":"m 338 588 q 338 558 329 525 q 319 493 300 466 q 280 439 251 422 q 221 405 180 405 q 150 405 130 414 q 109 422 96 438 q 83 453 77 473 q 71 493 71 515 q 71 547 81 580 q 91 612 111 638 q 131 664 161 680 q 191 697 230 697 q 257 697 277 689 q 297 681 311 667 q 324 652 331 632 q 338 612 338 588 z m 266 584 q 266 593 264 602 q 263 611 258 618 q 253 625 244 630 q 236 635 222 635 q 200 635 185 622 q 170 609 160 591 q 151 573 147 553 q 143 533 143 519 q 143 509 144 500 q 146 491 151 483 q 156 476 165 471 q 174 467 188 467 q 208 467 223 478 q 237 489 247 507 q 257 524 261 545 q 266 565 266 584 z m 630 690 l 42 0 l -42 0 l 545 690 z m 516 176 q 516 146 507 113 q 497 81 478 54 q 458 27 429 10 q 399 -7 358 -7 q 328 -7 307 2 q 287 11 274 26 q 261 41 255 61 q 249 81 249 103 q 249 135 259 168 q 270 200 290 226 q 310 252 339 269 q 369 285 408 285 q 435 285 455 277 q 476 270 489 255 q 502 241 509 220 q 516 200 516 176 z m 444 172 q 444 181 443 190 q 441 199 436 206 q 432 213 423 218 q 414 223 400 223 q 378 223 363 210 q 348 197 338 179 q 329 161 325 141 q 321 121 321 107 q 321 97 323 88 q 325 79 330 71 q 334 64 343 60 q 352 55 366 55 q 386 55 400 66 q 415 78 425 95 q 435 112 439 133 q 444 153 444 172 z"},"m":{"x_min":0,"x_max":550,"ha":550,"o":"m 378 0 l 447 343 q 452 370 454 386 q 456 403 455 412 q 455 421 451 425 q 448 428 443 428 q 433 428 420 417 q 407 406 393 387 q 379 369 365 344 q 351 320 338 294 q 326 268 316 242 q 307 217 303 195 l 264 0 l 186 0 l 255 343 q 260 370 262 386 q 264 403 263 412 q 263 421 260 425 q 256 428 251 428 q 241 428 228 417 q 215 406 201 387 q 187 369 173 344 q 158 320 146 294 q 134 268 125 242 q 115 217 111 195 l 72 0 l -6 0 l 47 265 q 49 274 51 290 q 53 305 56 330 q 60 356 64 395 q 68 434 74 490 l 147 490 l 135 377 q 148 402 163 424 q 178 446 194 463 q 209 479 228 489 q 246 499 266 499 q 291 499 307 489 q 324 479 331 463 q 339 446 338 424 q 337 402 327 377 q 341 402 355 424 q 370 446 385 463 q 401 479 419 489 q 438 499 458 499 q 507 499 524 462 q 541 425 525 347 l 456 0 z"},"#":{"x_min":0,"x_max":550,"ha":550,"o":"m 489 179 l 380 179 l 326 0 l 254 0 l 308 179 l 183 179 l 129 0 l 57 0 l 111 179 l 7 179 l 20 243 l 130 243 l 182 414 l 79 414 l 91 477 l 201 477 l 249 638 l 321 638 l 273 477 l 397 477 l 446 638 l 518 638 l 470 477 l 574 477 l 562 414 l 451 414 l 399 243 l 501 243 z m 327 243 l 378 414 l 254 414 l 203 243 z"},",":{"x_min":0,"x_max":550,"ha":550,"o":"m 39 -100 q 64 -101 91 -95 q 119 -89 141 -77 q 164 -64 178 -45 q 193 -25 193 1 q 193 14 189 23 q 185 32 180 40 q 175 48 171 58 q 167 68 167 82 q 167 100 174 114 q 180 128 190 138 q 201 147 213 152 q 226 157 239 157 q 271 157 292 136 q 313 114 313 72 q 313 47 306 21 q 299 -6 284 -33 q 270 -60 247 -84 q 225 -108 195 -126 q 164 -145 125 -156 q 86 -167 39 -167 z"},"n":{"x_min":0,"x_max":550,"ha":550,"o":"m 81 265 q 83 274 85 290 q 87 305 90 330 q 93 356 98 395 q 102 434 108 490 l 188 490 l 176 377 q 210 436 258 468 q 305 499 361 499 q 438 499 471 452 q 503 405 485 314 l 422 0 l 337 0 l 400 313 q 412 373 398 399 q 384 426 345 426 q 314 426 283 404 q 252 383 225 348 q 198 314 178 271 q 159 228 150 185 l 113 0 l 28 0 z"},"h":{"x_min":0,"x_max":550,"ha":550,"o":"m 422 0 l 337 0 l 400 313 q 412 373 398 399 q 384 426 345 426 q 314 426 283 404 q 252 383 225 348 q 198 314 178 271 q 159 228 150 185 l 113 0 l 28 0 l 166 690 l 251 690 l 211 490 l 184 386 q 198 412 217 432 q 236 453 259 468 q 281 483 307 491 q 333 499 361 499 q 438 499 471 452 q 503 405 485 314 z"},"z":{"x_min":0,"x_max":550,"ha":550,"o":"m 425 0 l 30 0 l 42 61 l 388 419 l 121 419 l 135 490 l 507 490 l 494 424 l 154 72 l 439 72 z"},"B":{"x_min":0,"x_max":550,"ha":550,"o":"m 27 0 l 155 638 l 332 638 q 426 638 474 607 q 522 575 522 514 q 522 487 515 460 q 508 433 492 409 q 476 385 449 366 q 423 346 385 335 q 406 331 425 322 q 443 312 457 298 q 471 283 479 264 q 487 244 487 219 q 487 194 480 168 q 474 143 459 118 q 445 94 423 72 q 400 51 369 35 q 337 19 295 9 q 253 0 200 0 z m 430 495 q 430 510 424 523 q 418 536 405 545 q 392 555 370 560 q 349 565 317 565 l 227 565 l 187 365 l 270 365 q 317 365 348 378 q 379 392 397 411 q 416 431 423 453 q 430 476 430 495 z m 394 211 q 394 250 361 271 q 329 293 266 293 l 173 293 l 129 73 l 214 73 q 252 73 281 80 q 309 87 329 98 q 349 110 362 124 q 375 139 382 154 q 389 169 391 184 q 394 199 394 211 z"},"K":{"x_min":0,"x_max":550,"ha":550,"o":"m 457 0 l 354 0 l 177 317 l 113 0 l 26 0 l 154 638 l 241 638 l 182 345 l 473 638 l 583 638 l 264 330 z"},"R":{"x_min":0,"x_max":550,"ha":550,"o":"m 461 0 l 367 0 l 313 204 q 307 228 298 243 q 290 258 278 267 q 267 276 252 280 q 237 284 218 284 l 177 284 l 120 0 l 33 0 l 161 638 l 326 638 q 374 638 408 629 q 443 620 466 602 q 489 585 500 560 q 511 535 511 503 q 511 465 499 433 q 487 401 465 375 q 442 350 411 331 q 379 313 340 303 q 365 294 379 269 q 393 243 403 205 z m 420 489 q 420 565 317 565 l 233 565 l 191 354 l 256 354 q 295 354 326 365 q 356 375 377 394 q 398 412 409 437 q 420 461 420 489 z"},"T":{"x_min":0,"x_max":550,"ha":550,"o":"m 571 564 l 382 564 l 269 0 l 181 0 l 294 564 l 105 564 l 120 638 l 586 638 z"},"P":{"x_min":0,"x_max":550,"ha":550,"o":"m 160 229 l 114 0 l 27 0 l 155 638 l 330 638 q 374 638 411 629 q 449 620 478 601 q 506 582 522 552 q 538 522 538 481 q 538 451 530 420 q 521 390 505 362 q 488 334 464 310 q 439 285 406 267 q 374 250 333 239 q 292 229 244 229 z m 447 473 q 447 517 415 541 q 383 565 320 565 l 227 565 l 175 302 l 252 302 q 291 302 320 310 q 350 318 371 332 q 393 345 407 363 q 422 380 431 399 q 439 418 443 437 q 447 457 447 473 z"},"|":{"x_min":0,"x_max":550,"ha":550,"o":"m 225 -200 l 145 -200 l 345 800 l 425 800 z"},"t":{"x_min":0,"x_max":550,"ha":550,"o":"m 432 7 q 401 0 371 -4 q 341 -7 318 -7 q 268 -7 233 4 q 197 15 177 39 q 156 63 151 101 q 146 139 157 193 l 202 419 l 65 419 l 79 490 l 216 490 l 243 625 l 333 647 l 301 490 l 521 490 l 507 419 l 287 419 l 241 190 q 234 156 236 133 q 237 109 248 94 q 258 79 277 72 q 297 65 327 65 q 345 65 373 69 q 400 72 432 80 z"},"M":{"x_min":0,"x_max":550,"ha":550,"o":"m 476 0 l 391 0 l 458 398 l 483 551 l 435 462 l 291 208 l 231 208 l 189 452 l 179 551 l 145 391 l 56 0 l -26 0 l 133 638 l 232 638 l 270 398 l 281 317 l 325 398 l 463 638 l 573 638 z"},"g":{"x_min":0,"x_max":550,"ha":550,"o":"m 332 -10 q 339 22 347 52 q 355 82 364 108 q 349 81 329 59 q 310 37 287 22 q 264 7 237 -1 q 211 -9 183 -9 q 148 -9 122 3 q 96 15 79 36 q 62 58 53 88 q 45 119 45 156 q 45 226 63 288 q 82 350 117 396 q 153 442 205 469 q 258 496 326 496 q 358 496 387 492 q 416 488 442 480 l 519 499 l 414 -26 q 406 -65 390 -98 q 374 -131 346 -155 q 318 -179 277 -192 q 237 -205 184 -205 q 126 -205 84 -190 q 42 -175 18 -157 l 61 -95 q 89 -114 121 -125 q 153 -137 191 -137 q 229 -137 253 -127 q 278 -116 293 -99 q 309 -81 317 -58 q 326 -35 332 -10 z m 131 164 q 131 118 147 91 q 163 65 199 65 q 220 65 241 75 q 262 84 282 102 q 302 119 320 142 q 338 165 353 191 q 367 217 378 245 q 389 272 394 300 l 415 406 q 392 416 368 421 q 344 427 323 427 q 283 427 253 413 q 224 399 202 377 q 181 355 167 327 q 153 299 145 270 q 137 241 134 213 q 131 185 131 164 z"},"j":{"x_min":0,"x_max":550,"ha":550,"o":"m 122 456 q 166 476 211 488 q 256 499 310 499 q 351 499 378 489 q 404 479 418 457 q 431 436 433 403 q 434 371 425 325 l 360 1 q 350 -52 327 -90 q 304 -129 273 -155 q 242 -180 205 -193 q 167 -205 126 -205 q 97 -205 72 -200 q 47 -194 26 -185 q 4 -176 -13 -163 q -31 -151 -45 -136 l 10 -81 q 31 -104 63 -119 q 94 -134 131 -134 q 185 -134 223 -97 q 261 -61 278 21 l 339 325 q 345 356 345 377 q 345 397 339 408 q 333 419 320 424 q 308 428 291 428 q 249 428 208 415 q 167 402 122 382 z m 349 626 q 349 641 354 654 q 360 667 369 676 q 379 685 392 690 q 404 696 419 696 q 433 696 445 691 q 457 686 465 677 q 474 668 478 657 q 483 645 483 632 q 483 617 478 604 q 472 591 463 582 q 453 573 440 567 q 428 562 413 562 q 399 562 387 567 q 375 572 367 581 q 358 589 354 601 q 349 613 349 626 z"},"i":{"x_min":0,"x_max":550,"ha":550,"o":"m 265 626 q 265 641 271 654 q 276 667 285 676 q 295 685 308 690 q 320 696 335 696 q 349 696 361 691 q 373 686 381 677 q 390 668 394 657 q 399 645 399 632 q 399 617 394 604 q 388 591 379 582 q 369 573 356 567 q 344 562 329 562 q 315 562 303 567 q 291 572 283 581 q 274 589 270 601 q 265 613 265 626 z m 467 31 q 433 12 396 2 q 358 -9 316 -9 q 281 -9 258 1 q 234 11 222 32 q 209 53 208 86 q 207 120 216 167 l 249 331 q 255 359 255 378 q 254 396 250 408 q 245 419 235 424 q 226 428 213 428 q 180 428 147 415 q 115 402 82 384 l 82 459 q 116 478 153 488 q 190 499 233 499 q 268 499 291 489 q 314 479 327 458 q 339 437 341 404 q 342 371 333 323 l 300 159 q 294 131 294 112 q 294 94 300 83 q 305 71 314 67 q 323 62 336 62 q 369 62 401 75 q 434 88 467 106 z"},"y":{"x_min":0,"x_max":550,"ha":550,"o":"m 351 98 q 308 37 272 -10 q 237 -56 206 -89 q 176 -123 149 -145 q 123 -167 98 -180 q 73 -193 48 -198 q 24 -203 -2 -203 q -15 -203 -26 -202 q -37 -202 -52 -200 l -52 -123 q -39 -125 -24 -127 q -10 -128 4 -128 q 27 -128 48 -121 q 69 -114 90 -99 q 110 -83 132 -59 q 154 -35 179 0 l 80 490 l 172 490 l 236 166 l 248 82 q 284 133 310 176 q 336 219 355 255 q 374 291 385 322 q 397 353 405 381 q 413 409 417 436 q 420 462 423 490 l 516 490 q 510 442 500 399 q 490 355 472 309 q 453 264 424 212 q 395 161 351 98 z"},"@":{"x_min":0,"x_max":550,"ha":550,"o":"m 569 467 q 569 417 563 365 q 557 312 545 264 q 533 216 516 173 q 499 131 477 99 q 454 67 427 49 q 400 31 368 31 q 347 31 332 37 q 317 43 309 53 q 300 63 298 76 q 295 89 298 103 q 277 65 253 48 q 229 31 201 31 q 184 31 169 36 q 154 41 144 52 q 133 62 127 81 q 121 99 121 125 q 121 154 127 190 q 132 226 144 262 q 155 298 172 332 q 189 366 212 393 q 235 419 263 435 q 292 451 325 451 q 346 451 362 447 q 378 442 385 438 l 451 453 l 375 213 q 365 179 360 156 q 356 134 356 120 q 356 106 361 100 q 366 94 374 94 q 389 94 404 110 q 419 126 433 153 q 447 181 460 217 q 472 253 481 293 q 490 334 496 377 q 501 419 501 460 q 501 546 472 591 q 442 636 378 636 q 337 636 296 611 q 256 585 219 541 q 182 498 151 439 q 120 381 97 315 q 74 250 61 181 q 48 112 48 47 q 48 -49 83 -96 q 119 -143 186 -143 q 208 -143 228 -141 q 248 -138 268 -133 q 288 -128 308 -121 q 328 -113 350 -103 l 350 -166 q 265 -203 179 -203 q 79 -203 29 -143 q -20 -82 -20 38 q -20 115 -5 193 q 10 271 36 345 q 63 418 101 482 q 138 546 183 594 q 229 641 280 668 q 332 696 387 696 q 479 696 524 638 q 569 580 569 467 z m 348 373 q 345 379 338 384 q 332 388 318 388 q 300 388 284 374 q 268 359 254 336 q 241 313 230 284 q 219 255 212 226 q 205 197 201 172 q 197 146 197 129 q 197 110 201 102 q 206 94 216 94 q 224 94 235 102 q 246 110 259 130 q 271 150 286 185 q 301 220 318 274 z"},".":{"x_min":0,"x_max":550,"ha":550,"o":"m 238 154 q 255 154 270 147 q 284 141 294 130 q 305 120 310 105 q 316 91 316 75 q 316 58 309 42 q 302 27 291 15 q 279 4 264 -2 q 249 -9 232 -9 q 215 -9 201 -2 q 187 4 176 15 q 166 25 160 39 q 154 53 154 69 q 154 87 161 103 q 167 118 179 129 q 191 141 206 147 q 221 154 238 154 z"},"p":{"x_min":0,"x_max":550,"ha":550,"o":"m 222 -6 q 187 -6 162 -3 q 138 0 117 6 l 76 -200 l -9 -200 l 84 265 q 86 274 88 290 q 90 305 94 330 q 97 356 101 395 q 105 434 111 490 l 191 490 l 179 377 q 213 436 261 468 q 309 499 365 499 q 400 499 426 487 q 452 475 469 454 q 486 432 495 402 q 503 371 503 334 q 503 264 485 202 q 466 140 431 94 q 395 48 343 21 q 290 -6 222 -6 z m 417 326 q 417 373 401 399 q 385 425 349 425 q 328 425 307 415 q 286 405 266 388 q 246 371 228 348 q 210 325 195 298 q 181 271 170 243 q 159 214 153 185 l 133 84 q 156 74 180 69 q 205 63 225 63 q 265 63 295 77 q 325 90 346 112 q 367 134 381 163 q 395 191 403 220 q 411 250 414 277 q 417 305 417 326 z"},"X":{"x_min":0,"x_max":550,"ha":550,"o":"m 488 0 l 382 0 l 279 258 l 71 0 l -41 0 l 236 326 l 104 638 l 203 638 l 301 398 l 496 638 l 600 638 l 342 330 z"},"*":{"x_min":0,"x_max":550,"ha":550,"o":"m 516 410 l 483 352 l 346 444 l 357 276 l 287 276 l 298 443 l 158 352 l 127 409 l 277 483 l 127 558 l 161 615 l 300 522 l 287 690 l 357 690 l 346 522 l 483 616 l 517 556 l 367 482 z"},"Y":{"x_min":0,"x_max":550,"ha":550,"o":"m 628 638 l 315 228 l 269 0 l 181 0 l 227 230 l 78 638 l 179 638 l 259 405 l 287 311 l 347 396 l 524 638 z"},"c":{"x_min":0,"x_max":550,"ha":550,"o":"m 420 20 q 379 6 344 0 q 309 -7 272 -7 q 174 -7 122 38 q 69 83 69 174 q 69 248 92 308 q 116 368 156 410 q 197 452 251 474 q 305 497 366 497 q 401 497 437 492 q 472 486 504 474 l 489 397 q 462 410 428 417 q 394 425 362 425 q 312 425 275 404 q 237 384 211 350 q 185 316 172 273 q 158 229 158 184 q 158 125 190 95 q 223 65 285 65 q 317 65 353 72 q 388 79 420 92 z"},"!":{"x_min":0,"x_max":550,"ha":550,"o":"m 413 690 l 299 187 l 224 187 l 310 690 z m 237 120 q 250 120 262 115 q 273 110 281 101 q 290 93 294 81 q 299 70 299 57 q 299 43 293 31 q 288 19 279 10 q 270 1 258 -4 q 246 -9 233 -9 q 219 -9 207 -4 q 196 1 188 10 q 179 18 175 29 q 170 41 170 53 q 170 67 175 80 q 181 92 190 101 q 199 110 211 115 q 224 120 237 120 z"},"/":{"x_min":0,"x_max":550,"ha":550,"o":"m 563 690 l 68 -105 l -19 -105 l 476 690 z"},"[":{"x_min":0,"x_max":550,"ha":550,"o":"m 319 -200 l 78 -200 l 260 707 l 500 707 l 487 639 l 327 639 l 173 -132 l 333 -132 z"},"6":{"x_min":0,"x_max":550,"ha":550,"o":"m 493 246 q 493 194 474 148 q 454 102 419 67 q 384 32 336 12 q 287 -9 229 -9 q 145 -9 100 38 q 55 84 55 180 q 55 206 58 240 q 62 273 69 310 q 77 347 91 386 q 105 425 127 461 q 148 498 179 530 q 209 562 250 586 q 291 610 344 624 q 396 638 462 638 l 528 638 l 513 564 l 448 564 q 384 564 338 548 q 292 532 259 504 q 227 477 207 440 q 187 403 175 363 l 171 354 q 206 371 244 382 q 283 393 322 393 q 366 393 399 382 q 431 372 452 352 q 473 333 483 306 q 493 279 493 246 z m 404 238 q 404 279 380 302 q 356 324 306 324 q 287 324 266 321 q 246 317 226 311 q 206 305 188 297 q 169 289 154 280 q 148 257 146 230 q 143 204 143 178 q 143 145 150 122 q 156 100 169 86 q 181 73 199 67 q 218 61 241 61 q 279 61 309 76 q 339 91 360 116 q 381 141 393 173 q 404 205 404 238 z"},"r":{"x_min":0,"x_max":550,"ha":550,"o":"m 101 265 q 103 274 105 290 q 107 305 110 330 q 113 356 118 395 q 122 434 128 490 l 208 490 l 196 377 q 213 402 233 424 q 253 446 277 463 q 301 479 329 489 q 357 499 391 499 q 472 499 502 449 q 533 398 512 303 l 426 303 q 433 337 433 360 q 433 384 427 398 q 420 413 407 419 q 394 426 376 426 q 341 426 308 405 q 274 383 247 349 q 219 314 199 271 q 180 229 171 185 l 134 0 l 48 0 z"},"2":{"x_min":0,"x_max":550,"ha":550,"o":"m 442 0 l 22 0 l 37 76 l 235 242 q 291 289 325 324 q 359 359 378 387 q 397 416 404 439 q 411 462 411 485 q 411 524 389 548 q 367 572 321 572 q 280 572 243 554 q 207 536 173 507 l 131 563 q 153 582 176 597 q 199 613 224 624 q 250 635 277 641 q 305 647 335 647 q 373 647 403 636 q 434 625 456 605 q 478 585 490 557 q 502 528 502 493 q 502 455 491 421 q 480 387 455 352 q 430 317 390 279 q 350 241 292 194 l 153 81 l 458 81 z"},"{":{"x_min":0,"x_max":550,"ha":550,"o":"m 348 -200 l 312 -200 q 218 -200 181 -154 q 145 -107 163 -17 l 195 146 q 200 170 198 189 q 196 208 186 220 q 175 233 154 240 q 133 247 99 247 l 78 247 l 92 315 l 113 315 q 148 315 172 321 q 196 327 211 339 q 227 351 235 369 q 244 388 249 413 l 273 534 q 281 575 297 607 q 313 639 340 661 q 366 684 404 695 q 442 707 493 707 l 529 707 l 516 639 l 486 639 q 374 639 352 529 l 328 410 q 316 350 284 318 q 252 286 199 278 q 226 275 243 264 q 260 252 269 235 q 278 217 279 193 q 281 169 275 142 l 243 -20 q 237 -48 239 -69 q 241 -90 251 -104 q 261 -118 281 -125 q 301 -132 333 -132 l 362 -132 z"},"9":{"x_min":0,"x_max":550,"ha":550,"o":"m 520 455 q 520 431 517 399 q 515 367 507 330 q 499 293 485 255 q 471 216 449 180 q 427 143 395 110 q 364 78 321 53 q 277 29 222 14 q 166 0 95 0 l 38 0 l 53 74 l 102 74 q 167 74 218 89 q 269 104 306 131 q 343 158 367 195 q 391 231 403 275 l 406 284 q 373 267 335 256 q 297 245 256 245 q 208 245 175 257 q 142 270 121 290 q 101 311 92 337 q 83 364 83 393 q 83 442 102 488 q 120 534 154 569 q 188 604 237 626 q 286 647 346 647 q 429 647 474 600 q 520 554 520 455 z m 334 577 q 294 577 264 561 q 234 545 213 520 q 193 495 182 463 q 172 432 172 401 q 172 385 177 369 q 181 354 193 341 q 204 329 223 322 q 243 314 272 314 q 292 314 312 317 q 333 321 352 327 q 372 333 389 340 q 407 348 422 357 q 427 383 430 411 q 432 439 432 463 q 432 495 426 517 q 419 539 406 552 q 394 565 376 571 q 357 577 334 577 z"}," ":{"x_min":0,"x_max":550,"ha":550,"o":""},"I":{"x_min":0,"x_max":550,"ha":550,"o":"m 294 565 l 147 565 l 162 638 l 544 638 l 529 565 l 382 565 l 284 74 l 431 74 l 416 0 l 34 0 l 49 74 l 196 74 z"},"H":{"x_min":0,"x_max":550,"ha":550,"o":"m 446 0 l 359 0 l 418 293 l 150 293 l 91 0 l 4 0 l 132 638 l 219 638 l 165 368 l 433 368 l 487 638 l 574 638 z"},"4":{"x_min":0,"x_max":550,"ha":550,"o":"m 502 141 l 393 141 l 365 0 l 278 0 l 306 141 l -1 141 l 14 216 l 363 638 l 493 638 l 408 216 l 517 216 z m 389 556 l 106 216 l 321 216 z"},"~":{"x_min":0,"x_max":550,"ha":550,"o":"m 530 340 q 529 303 518 271 q 508 240 489 217 q 470 194 442 181 q 415 168 379 168 q 352 168 331 177 q 310 186 292 200 q 274 213 260 229 q 245 246 230 259 q 216 273 202 282 q 188 291 171 291 q 142 291 125 268 q 109 245 105 196 l 27 196 q 29 233 40 264 q 50 296 69 319 q 88 342 115 355 q 141 368 176 368 q 203 368 224 359 q 245 350 263 336 q 281 323 296 307 q 311 291 325 277 q 339 263 354 254 q 368 245 385 245 q 417 245 433 268 q 449 290 452 340 z"},"D":{"x_min":0,"x_max":550,"ha":550,"o":"m 3 0 l 131 638 l 291 638 q 414 638 477 586 q 539 533 539 423 q 539 403 537 375 q 534 346 527 312 q 521 279 508 243 q 496 207 476 172 q 456 137 427 106 q 398 75 359 51 q 319 28 269 14 q 218 0 153 0 z m 449 419 q 449 458 439 486 q 428 514 407 531 q 386 549 354 557 q 323 565 281 565 l 203 565 l 105 75 l 164 75 q 212 75 250 86 q 287 98 316 117 q 345 136 366 162 q 387 187 402 215 q 417 244 426 273 q 436 302 441 329 q 446 356 448 380 q 449 403 449 419 z"},"^":{"x_min":0,"x_max":550,"ha":550,"o":"m 510 326 l 430 326 l 338 571 l 156 326 l 74 326 l 316 638 l 385 638 z"},"0":{"x_min":0,"x_max":550,"ha":550,"o":"m 226 -9 q 185 -9 152 4 q 118 17 94 44 q 71 70 58 111 q 45 151 45 205 q 45 230 48 262 q 51 294 58 330 q 65 365 77 403 q 89 440 106 476 q 124 511 147 542 q 170 573 200 596 q 230 620 268 633 q 306 647 352 647 q 393 647 427 634 q 460 621 484 594 q 507 568 520 528 q 533 487 533 433 q 533 408 530 376 q 527 344 520 308 q 513 272 501 235 q 489 198 472 163 q 455 127 431 96 q 408 65 378 42 q 348 19 310 5 q 272 -9 226 -9 z m 237 63 q 270 63 297 77 q 324 91 346 115 q 368 139 385 170 q 402 202 414 237 q 426 272 434 309 q 441 345 444 379 l 133 178 q 135 153 142 132 q 148 111 161 95 q 173 80 192 72 q 210 63 237 63 z m 341 575 q 308 575 281 562 q 254 548 233 525 q 211 501 194 470 q 177 439 165 405 q 153 371 145 334 q 137 298 134 265 l 445 465 q 442 489 435 509 q 427 529 415 544 q 402 559 384 567 q 366 575 341 575 z"},"F":{"x_min":0,"x_max":550,"ha":550,"o":"m 523 564 l 252 564 l 210 357 l 467 357 l 453 284 l 196 284 l 139 0 l 50 0 l 178 638 l 538 638 z"},"`":{"x_min":0,"x_max":550,"ha":550,"o":"m 389 572 l 304 572 l 154 690 l 277 690 z m 0 490 z"},"k":{"x_min":0,"x_max":550,"ha":550,"o":"m 462 0 l 355 0 l 189 253 q 253 257 296 268 q 339 278 365 294 q 392 309 403 328 q 414 348 414 369 q 414 381 410 391 q 407 401 399 409 q 392 417 380 421 q 369 426 353 426 q 322 426 291 404 q 260 383 233 348 q 207 314 187 271 q 167 228 158 185 l 121 0 l 36 0 l 174 690 l 259 690 l 219 490 l 192 386 q 206 412 225 432 q 244 453 267 468 q 290 483 315 491 q 341 499 369 499 q 400 499 425 490 q 449 481 465 464 q 482 448 490 425 q 499 402 499 374 q 499 337 482 310 q 465 282 439 261 q 412 241 379 229 q 345 216 312 210 z"},"u":{"x_min":0,"x_max":550,"ha":550,"o":"m 467 225 q 465 216 463 201 q 460 186 458 160 q 455 134 450 95 q 446 57 440 0 l 360 0 l 372 113 q 338 54 291 23 q 243 -9 187 -9 q 109 -9 77 38 q 44 85 63 176 l 126 490 l 211 490 l 148 177 q 136 118 150 91 q 164 64 203 64 q 224 64 245 74 q 266 83 285 101 q 305 118 323 141 q 341 165 356 191 q 371 218 381 247 q 392 276 398 305 l 435 490 l 520 490 z"},"]":{"x_min":0,"x_max":550,"ha":550,"o":"m 291 -200 l 50 -200 l 64 -132 l 223 -132 l 377 639 l 218 639 l 232 707 l 473 707 z"},"U":{"x_min":0,"x_max":550,"ha":550,"o":"m 491 222 q 480 169 458 127 q 436 84 403 54 q 369 24 325 8 q 281 -9 227 -9 q 167 -9 128 7 q 89 22 67 51 q 45 80 40 120 q 35 160 45 209 l 131 638 l 218 638 l 133 216 q 125 178 126 150 q 127 122 139 103 q 151 83 174 74 q 198 64 235 64 q 304 64 346 104 q 389 144 403 217 l 488 638 l 575 638 z"},"o":{"x_min":0,"x_max":550,"ha":550,"o":"m 225 -9 q 137 -9 88 36 q 39 82 39 172 q 39 212 48 252 q 56 292 73 328 q 89 365 114 396 q 138 427 170 450 q 202 473 240 486 q 278 499 323 499 q 367 499 402 488 q 436 476 460 453 q 483 431 496 397 q 509 363 509 318 q 509 278 500 238 q 492 198 475 162 q 458 125 434 94 q 410 63 378 40 q 347 17 308 4 q 270 -9 225 -9 z m 422 309 q 422 368 394 397 q 366 427 313 427 q 283 427 257 416 q 231 406 210 387 q 189 369 174 345 q 158 321 147 294 q 137 267 131 238 q 126 208 126 181 q 126 122 154 93 q 182 63 235 63 q 266 63 291 73 q 317 84 338 102 q 358 121 374 145 q 390 169 401 196 q 411 224 417 253 q 422 282 422 309 z"},"N":{"x_min":0,"x_max":550,"ha":550,"o":"m 439 0 l 331 0 l 225 398 l 195 526 l 131 204 l 90 0 l 9 0 l 138 638 l 246 638 l 347 261 l 381 115 l 450 457 l 486 638 l 567 638 z"},"+":{"x_min":0,"x_max":550,"ha":550,"o":"m 505 229 l 313 229 l 273 30 l 189 30 l 229 229 l 37 229 l 52 303 l 244 303 l 283 501 l 367 501 l 328 303 l 520 303 z"},"G":{"x_min":0,"x_max":550,"ha":550,"o":"m 547 529 q 531 538 515 546 q 500 553 482 558 q 465 563 446 566 q 427 569 405 569 q 355 569 315 553 q 275 538 245 512 q 214 486 191 451 q 169 417 154 379 q 140 340 133 301 q 126 261 126 225 q 126 188 135 159 q 145 129 164 109 q 184 89 214 79 q 245 68 287 68 q 296 68 308 69 q 320 70 332 72 q 344 73 355 76 q 366 78 374 81 l 415 284 l 285 284 l 299 356 l 515 356 l 450 30 q 406 11 359 1 q 312 -9 269 -9 q 214 -9 171 5 q 127 20 97 48 q 67 77 51 120 q 35 163 35 220 q 35 271 46 323 q 56 375 77 422 q 99 470 130 511 q 161 552 203 582 q 245 612 296 630 q 348 647 409 647 q 452 647 492 639 q 532 632 564 615 z"},"q":{"x_min":0,"x_max":550,"ha":550,"o":"m 519 499 l 379 -200 l 294 -200 l 332 -10 l 364 108 q 349 81 329 59 q 310 37 287 22 q 264 7 237 -1 q 211 -9 183 -9 q 148 -9 122 3 q 96 15 79 36 q 62 58 53 88 q 45 119 45 156 q 45 226 63 288 q 82 350 117 396 q 153 442 205 469 q 258 496 326 496 q 358 496 387 492 q 416 488 442 480 z m 131 164 q 131 118 147 91 q 163 65 199 65 q 220 65 241 75 q 262 84 282 102 q 302 119 320 142 q 338 165 353 191 q 367 217 378 245 q 389 272 394 300 l 415 406 q 392 416 368 421 q 344 427 323 427 q 283 427 253 413 q 224 399 202 377 q 181 355 167 327 q 153 299 145 270 q 137 241 134 213 q 131 185 131 164 z"},"d":{"x_min":0,"x_max":550,"ha":550,"o":"m 326 496 q 361 496 385 493 q 410 490 431 484 l 472 690 l 557 690 l 464 225 q 462 216 460 201 q 458 186 455 160 q 452 134 447 95 q 443 57 437 0 l 357 0 l 369 113 q 335 54 287 23 q 239 -9 183 -9 q 148 -9 122 3 q 96 15 79 36 q 62 58 53 88 q 45 119 45 156 q 45 226 63 288 q 82 350 117 396 q 153 442 205 469 q 258 496 326 496 z m 131 164 q 131 118 147 91 q 163 65 199 65 q 220 65 241 75 q 262 84 282 102 q 302 119 320 142 q 338 165 353 192 q 368 218 378 247 q 389 276 395 305 l 415 406 q 392 416 368 421 q 344 427 323 427 q 283 427 253 413 q 224 399 202 377 q 181 355 167 327 q 153 299 145 270 q 137 241 134 213 q 131 185 131 164 z"},"1":{"x_min":0,"x_max":550,"ha":550,"o":"m 437 0 l 36 0 l 52 79 l 216 79 l 308 540 l 142 459 l 121 534 l 345 641 l 422 641 l 310 79 l 453 79 z"},"5":{"x_min":0,"x_max":550,"ha":550,"o":"m 469 235 q 469 184 446 140 q 423 95 382 62 q 341 29 285 10 q 229 -9 162 -9 q 146 -9 129 -8 q 112 -7 95 -6 q 79 -5 64 -3 q 49 -1 37 1 l 52 76 q 64 73 79 71 q 94 69 110 67 q 125 66 140 65 q 156 65 170 65 q 216 65 254 77 q 292 89 320 111 q 347 133 363 162 q 378 191 378 225 q 378 268 342 290 q 307 312 232 312 l 110 312 l 176 638 l 520 638 l 505 564 l 241 564 l 205 385 l 256 385 q 299 385 338 376 q 377 368 406 350 q 435 333 452 304 q 469 275 469 235 z"}}}
